<?xml version="1.0" encoding="UTF-8" standalone="no"?>
<svg
   xmlns:dc="http://purl.org/dc/elements/1.1/"
   xmlns:cc="http://creativecommons.org/ns#"
   xmlns:rdf="http://www.w3.org/1999/02/22-rdf-syntax-ns#"
   xmlns:svg="http://www.w3.org/2000/svg"
   xmlns="http://www.w3.org/2000/svg"
   version="1.1"
   id="svg833"
   width="256"
   height="256"
   viewBox="0 0 256 256">
  <metadata
     id="metadata839">
    <rdf:RDF>
      <cc:Work
         rdf:about="">
        <dc:format>image/svg+xml</dc:format>
        <dc:type
           rdf:resource="http://purl.org/dc/dcmitype/StillImage" />
        <dc:title></dc:title>
      </cc:Work>
    </rdf:RDF>
  </metadata>
  <defs
     id="defs837" />
  <g
     id="g841">
    <path
       style="fill:#000000"
       d="m 52.5,223.52856 c -0.55,-0.23145 -2.950919,-0.92276 -5.335375,-1.53623 l -4.335375,-1.1154 0.687196,-5.18846 c 0.377958,-2.85366 0.986752,-5.51135 1.352876,-5.90597 0.366124,-0.39463 3.510397,0.16787 6.987273,1.25 11.430374,3.55753 19.113375,2.2076 20.57477,-3.61506 1.033764,-4.11884 -1.507935,-6.74904 -10.089777,-10.4411 -10.602868,-4.56155 -15.044012,-7.44027 -17.37409,-11.26176 -2.494216,-4.0907 -2.516918,-10.908 -0.05438,-16.33067 4.266176,-9.39441 14.26349,-12.76442 29.996636,-10.1116 5.091178,0.85844 9.516468,1.82058 9.833976,2.13808 C 85.287957,161.95462 83.201065,173 82.55401,173 c -0.166406,0 -2.262876,-0.69164 -4.658823,-1.53698 -6.681863,-2.3575 -15.209799,-2.38532 -17.786251,-0.058 -2.411615,2.17839 -2.787245,6.78717 -0.694718,8.52382 0.777819,0.64553 5.390319,2.93218 10.25,5.08143 15.100716,6.67849 19.080801,11.48228 18.021018,21.75059 -0.695169,6.73553 -3.465868,11.17991 -8.885828,14.25344 -3.689465,2.0922 -5.789009,2.47334 -14.799408,2.6866 -5.775,0.13668 -10.95,0.0591 -11.5,-0.17231 z m 127.83198,-0.42865 c -5.35304,-1.37505 -11.98139,-5.85846 -15.26758,-10.32697 -9.66883,-13.14757 -7.41292,-38.30343 4.23142,-47.185 7.4446,-5.67828 12.32758,-7.08655 24.20418,-6.9806 8.11077,0.0724 12.37294,0.59716 16.22713,1.99807 l 5.22712,1.89994 -2.48015,5.35315 c -1.97407,4.26083 -2.83663,5.21423 -4.22713,4.67231 -14.69214,-5.72593 -27.21332,-3.31219 -31.79893,6.12995 -2.29835,4.73249 -3.11121,16.79979 -1.46719,21.78121 C 177.65102,208.53266 184.02055,213 192.88609,213 200.66766,213 201,212.68842 201,205.39301 V 199 h -5.5 -5.5 v -6 -6 h 12.5 12.5 v 16.406 16.406 l -4.75,1.70847 c -5.30581,1.90839 -24.65981,2.93013 -29.91802,1.57944 z M 114.90175,220.25 C 107.16198,199.95506 92,159.64795 92,159.36723 92,159.16525 95.31728,159 99.37173,159 h 7.37173 l 7.00306,19.25 c 3.85168,10.5875 7.59614,21.05 8.32104,23.25 l 1.31798,4 1.05723,-2.97018 c 0.58148,-1.63359 4.43223,-11.98359 8.55723,-23 l 7.5,-20.02982 7.28199,-0.29446 7.282,-0.29445 -1.35119,3.29445 c -0.74315,1.81196 -6.24272,16.23196 -12.22127,32.04446 L 130.62146,223 h -7.33548 c -7.08143,0 -7.3718,-0.0952 -8.38423,-2.75 z M 44,80.034983 V 21 h 58.25695 58.25694 L 187.25695,47.75682 214,74.51364 V 106.75682 139 H 203.5 193 V 111.24085 83.481705 L 172.74107,63.240852 152.48213,43 H 108.75076 65.019394 L 64.759697,90.75 64.5,138.5 54.25,138.78498 44,139.06997 Z"
       id="path847" />
  </g>
</svg>
